<mxfile host="app.diagrams.net" modified="2024-05-21T16:18:37.728Z" agent="Mozilla/5.0 (X11; Linux x86_64) AppleWebKit/537.36 (KHTML, like Gecko) Chrome/120.0.0.0 YaBrowser/24.1.0.0 Safari/537.36" etag="-mLrISGZdZE9JVDrrN5C" version="24.4.4" type="device" pages="2">
  <diagram name="Логическая модель" id="fqgPLcOdb8Tmf1ss5-ao">
    <mxGraphModel dx="2705" dy="1026" grid="1" gridSize="10" guides="1" tooltips="1" connect="1" arrows="1" fold="1" page="1" pageScale="1" pageWidth="827" pageHeight="1169" math="0" shadow="0">
      <root>
        <mxCell id="0" />
        <mxCell id="1" parent="0" />
        <mxCell id="9opxPQ4HGeOpxuJZDSy2-15" value="&lt;table border=&quot;1&quot; width=&quot;100%&quot; height=&quot;100%&quot; cellpadding=&quot;4&quot; style=&quot;width:100%;height:100%;border-collapse:collapse;&quot;&gt;&lt;tbody&gt;&lt;tr&gt;&lt;th align=&quot;center&quot;&gt;Project&lt;/th&gt;&lt;/tr&gt;&lt;tr&gt;&lt;td align=&quot;center&quot;&gt;project_id&lt;/td&gt;&lt;/tr&gt;&lt;tr&gt;&lt;td align=&quot;center&quot;&gt;Employee_id (FK)&lt;br&gt;Customer_id (FK)&lt;br&gt;Preprocessing_id (FK)&lt;br&gt;Report_id (FK)&lt;br&gt;Selecting_id (FK)&lt;br&gt;Lerning_id (FK)&lt;br&gt;Dataset_id (FK)&lt;br&gt;Model_id (FK)&lt;br&gt;Report_id (FK)&lt;br&gt;Deadline&lt;br&gt;Task&lt;br&gt;Requirements&lt;br&gt;Data&lt;/td&gt;&lt;/tr&gt;&lt;/tbody&gt;&lt;/table&gt;" style="text;html=1;whiteSpace=wrap;strokeColor=none;fillColor=none;overflow=fill;" vertex="1" parent="1">
          <mxGeometry x="323" y="20" width="180" height="250" as="geometry" />
        </mxCell>
        <mxCell id="9opxPQ4HGeOpxuJZDSy2-16" value="&lt;table border=&quot;1&quot; width=&quot;100%&quot; height=&quot;100%&quot; cellpadding=&quot;4&quot; style=&quot;width:100%;height:100%;border-collapse:collapse;&quot;&gt;&lt;tbody&gt;&lt;tr&gt;&lt;th align=&quot;center&quot;&gt;Заказчик&lt;/th&gt;&lt;/tr&gt;&lt;tr&gt;&lt;td align=&quot;center&quot;&gt;Customer_id&lt;/td&gt;&lt;/tr&gt;&lt;tr&gt;&lt;td align=&quot;center&quot;&gt;Name_Surname&lt;br&gt;INN&lt;br&gt;&lt;br&gt;&lt;/td&gt;&lt;/tr&gt;&lt;/tbody&gt;&lt;/table&gt;" style="text;html=1;whiteSpace=wrap;strokeColor=none;fillColor=none;overflow=fill;" vertex="1" parent="1">
          <mxGeometry x="100" y="120" width="100" height="100" as="geometry" />
        </mxCell>
        <mxCell id="9opxPQ4HGeOpxuJZDSy2-43" style="edgeStyle=orthogonalEdgeStyle;rounded=0;orthogonalLoop=1;jettySize=auto;html=1;exitX=1;exitY=1;exitDx=0;exitDy=0;entryX=0;entryY=0;entryDx=0;entryDy=0;dashed=1;endArrow=oval;endFill=1;" edge="1" parent="1" source="9opxPQ4HGeOpxuJZDSy2-17" target="9opxPQ4HGeOpxuJZDSy2-18">
          <mxGeometry relative="1" as="geometry" />
        </mxCell>
        <mxCell id="9opxPQ4HGeOpxuJZDSy2-45" style="edgeStyle=orthogonalEdgeStyle;rounded=0;orthogonalLoop=1;jettySize=auto;html=1;exitX=0.75;exitY=1;exitDx=0;exitDy=0;entryX=0;entryY=1;entryDx=0;entryDy=0;endArrow=oval;endFill=1;dashed=1;" edge="1" parent="1" source="9opxPQ4HGeOpxuJZDSy2-17" target="9opxPQ4HGeOpxuJZDSy2-19">
          <mxGeometry relative="1" as="geometry">
            <Array as="points">
              <mxPoint x="-165" y="710" />
              <mxPoint x="280" y="710" />
            </Array>
          </mxGeometry>
        </mxCell>
        <mxCell id="9opxPQ4HGeOpxuJZDSy2-46" style="edgeStyle=orthogonalEdgeStyle;rounded=0;orthogonalLoop=1;jettySize=auto;html=1;exitX=0.5;exitY=1;exitDx=0;exitDy=0;entryX=0.25;entryY=1;entryDx=0;entryDy=0;endArrow=oval;endFill=1;dashed=1;" edge="1" parent="1" source="9opxPQ4HGeOpxuJZDSy2-17" target="9opxPQ4HGeOpxuJZDSy2-20">
          <mxGeometry relative="1" as="geometry">
            <Array as="points">
              <mxPoint x="-190" y="740" />
              <mxPoint x="482" y="740" />
            </Array>
          </mxGeometry>
        </mxCell>
        <mxCell id="9opxPQ4HGeOpxuJZDSy2-47" style="edgeStyle=orthogonalEdgeStyle;rounded=0;orthogonalLoop=1;jettySize=auto;html=1;exitX=0.25;exitY=1;exitDx=0;exitDy=0;entryX=1;entryY=1;entryDx=0;entryDy=0;dashed=1;endArrow=oval;endFill=1;" edge="1" parent="1" source="9opxPQ4HGeOpxuJZDSy2-17" target="9opxPQ4HGeOpxuJZDSy2-22">
          <mxGeometry relative="1" as="geometry">
            <mxPoint x="600" y="870" as="targetPoint" />
            <Array as="points">
              <mxPoint x="-215" y="780" />
              <mxPoint x="770" y="780" />
            </Array>
          </mxGeometry>
        </mxCell>
        <mxCell id="9opxPQ4HGeOpxuJZDSy2-17" value="&lt;table border=&quot;1&quot; width=&quot;100%&quot; height=&quot;100%&quot; cellpadding=&quot;4&quot; style=&quot;width:100%;height:100%;border-collapse:collapse;&quot;&gt;&lt;tbody&gt;&lt;tr&gt;&lt;th align=&quot;center&quot;&gt;Сотрудник&lt;/th&gt;&lt;/tr&gt;&lt;tr&gt;&lt;td align=&quot;center&quot;&gt;Employee_id&lt;br&gt;&lt;/td&gt;&lt;/tr&gt;&lt;tr&gt;&lt;td align=&quot;center&quot;&gt;Name_Surname&lt;br&gt;INN&lt;br&gt;Logs&lt;br&gt;&lt;br&gt;&lt;/td&gt;&lt;/tr&gt;&lt;/tbody&gt;&lt;/table&gt;" style="text;html=1;whiteSpace=wrap;strokeColor=none;fillColor=none;overflow=fill;" vertex="1" parent="1">
          <mxGeometry x="-240" y="550" width="100" height="120" as="geometry" />
        </mxCell>
        <mxCell id="9opxPQ4HGeOpxuJZDSy2-18" value="&lt;table border=&quot;1&quot; width=&quot;100%&quot; height=&quot;100%&quot; cellpadding=&quot;4&quot; style=&quot;width:100%;height:100%;border-collapse:collapse;&quot;&gt;&lt;tbody&gt;&lt;tr&gt;&lt;th align=&quot;center&quot;&gt;&lt;span style=&quot;font-weight: 400;&quot;&gt;Подготовка датасета&lt;/span&gt;&lt;br&gt;&lt;/th&gt;&lt;/tr&gt;&lt;tr&gt;&lt;td align=&quot;center&quot;&gt;Preprocessing_id&lt;br&gt;&lt;/td&gt;&lt;/tr&gt;&lt;tr&gt;&lt;td align=&quot;center&quot;&gt;Employee_id(FK)&lt;br&gt;Result&lt;br&gt;&lt;br&gt;&lt;/td&gt;&lt;/tr&gt;&lt;/tbody&gt;&lt;/table&gt;" style="text;html=1;whiteSpace=wrap;strokeColor=none;fillColor=none;overflow=fill;" vertex="1" parent="1">
          <mxGeometry x="85" y="580" width="130" height="110" as="geometry" />
        </mxCell>
        <mxCell id="9opxPQ4HGeOpxuJZDSy2-19" value="&lt;table border=&quot;1&quot; width=&quot;100%&quot; height=&quot;100%&quot; cellpadding=&quot;4&quot; style=&quot;width:100%;height:100%;border-collapse:collapse;&quot;&gt;&lt;tbody&gt;&lt;tr&gt;&lt;th align=&quot;center&quot;&gt;&lt;span style=&quot;font-weight: 400;&quot;&gt;Выбор алгоритма&lt;/span&gt;&lt;br&gt;&lt;/th&gt;&lt;/tr&gt;&lt;tr&gt;&lt;td align=&quot;center&quot;&gt;Selecting_id&lt;br&gt;&lt;/td&gt;&lt;/tr&gt;&lt;tr&gt;&lt;td align=&quot;center&quot;&gt;Employee_id(FK)&lt;br&gt;Result&lt;br&gt;&lt;br&gt;&lt;/td&gt;&lt;/tr&gt;&lt;/tbody&gt;&lt;/table&gt;" style="text;html=1;whiteSpace=wrap;strokeColor=none;fillColor=none;overflow=fill;" vertex="1" parent="1">
          <mxGeometry x="280" y="540" width="120" height="110" as="geometry" />
        </mxCell>
        <mxCell id="9opxPQ4HGeOpxuJZDSy2-20" value="&lt;table border=&quot;1&quot; width=&quot;100%&quot; height=&quot;100%&quot; cellpadding=&quot;4&quot; style=&quot;width:100%;height:100%;border-collapse:collapse;&quot;&gt;&lt;tbody&gt;&lt;tr&gt;&lt;th align=&quot;center&quot;&gt;&lt;span style=&quot;font-weight: 400;&quot;&gt;Обучение выбранной модели&lt;/span&gt;&lt;br&gt;&lt;/th&gt;&lt;/tr&gt;&lt;tr&gt;&lt;td align=&quot;center&quot;&gt;Lerning_id&amp;nbsp; &amp;nbsp;&amp;nbsp;&lt;br&gt;&lt;/td&gt;&lt;/tr&gt;&lt;tr&gt;&lt;td align=&quot;center&quot;&gt;Employee_id(FK)&lt;br&gt;Result&lt;br&gt;&lt;br&gt;&lt;/td&gt;&lt;/tr&gt;&lt;/tbody&gt;&lt;/table&gt;" style="text;html=1;whiteSpace=wrap;strokeColor=none;fillColor=none;overflow=fill;" vertex="1" parent="1">
          <mxGeometry x="450" y="500" width="130" height="120" as="geometry" />
        </mxCell>
        <mxCell id="9opxPQ4HGeOpxuJZDSy2-21" value="&lt;table border=&quot;1&quot; width=&quot;100%&quot; height=&quot;100%&quot; cellpadding=&quot;4&quot; style=&quot;width:100%;height:100%;border-collapse:collapse;&quot;&gt;&lt;tbody&gt;&lt;tr&gt;&lt;th align=&quot;center&quot;&gt;&lt;span style=&quot;font-weight: 400;&quot;&gt;Датасет&lt;/span&gt;&lt;br&gt;&lt;/th&gt;&lt;/tr&gt;&lt;tr&gt;&lt;td align=&quot;center&quot;&gt;Dataset_id&amp;nbsp; &amp;nbsp;&amp;nbsp;&lt;br&gt;&lt;/td&gt;&lt;/tr&gt;&lt;tr&gt;&lt;td align=&quot;center&quot;&gt;Data&lt;br&gt;&lt;br&gt;&lt;/td&gt;&lt;/tr&gt;&lt;/tbody&gt;&lt;/table&gt;" style="text;html=1;whiteSpace=wrap;strokeColor=none;fillColor=none;overflow=fill;" vertex="1" parent="1">
          <mxGeometry x="690" y="164.5" width="90" height="105.5" as="geometry" />
        </mxCell>
        <mxCell id="9opxPQ4HGeOpxuJZDSy2-22" value="&lt;table border=&quot;1&quot; width=&quot;100%&quot; height=&quot;100%&quot; cellpadding=&quot;4&quot; style=&quot;width:100%;height:100%;border-collapse:collapse;&quot;&gt;&lt;tbody&gt;&lt;tr&gt;&lt;th align=&quot;center&quot;&gt;&lt;span style=&quot;font-weight: 400;&quot;&gt;Релиз модели и документации&lt;/span&gt;&lt;br&gt;&lt;/th&gt;&lt;/tr&gt;&lt;tr&gt;&lt;td align=&quot;center&quot;&gt;Relise_id&amp;nbsp; &amp;nbsp;&amp;nbsp;&lt;br&gt;&lt;/td&gt;&lt;/tr&gt;&lt;tr&gt;&lt;td align=&quot;center&quot;&gt;Employee_id(FK)&lt;br&gt;Result&lt;br&gt;&lt;br&gt;&lt;/td&gt;&lt;/tr&gt;&lt;/tbody&gt;&lt;/table&gt;" style="text;html=1;whiteSpace=wrap;strokeColor=none;fillColor=none;overflow=fill;" vertex="1" parent="1">
          <mxGeometry x="650" y="340" width="120" height="130" as="geometry" />
        </mxCell>
        <mxCell id="9opxPQ4HGeOpxuJZDSy2-23" value="&lt;table border=&quot;1&quot; width=&quot;100%&quot; height=&quot;100%&quot; cellpadding=&quot;4&quot; style=&quot;width:100%;height:100%;border-collapse:collapse;&quot;&gt;&lt;tbody&gt;&lt;tr&gt;&lt;th align=&quot;center&quot;&gt;&lt;span style=&quot;font-weight: 400;&quot;&gt;Модель&lt;/span&gt;&lt;br&gt;&lt;/th&gt;&lt;/tr&gt;&lt;tr&gt;&lt;td align=&quot;center&quot;&gt;Model_id&amp;nbsp; &amp;nbsp;&amp;nbsp;&lt;br&gt;&lt;/td&gt;&lt;/tr&gt;&lt;tr&gt;&lt;td align=&quot;center&quot;&gt;Реализация модели&lt;br&gt;&lt;br&gt;&lt;/td&gt;&lt;/tr&gt;&lt;/tbody&gt;&lt;/table&gt;" style="text;html=1;whiteSpace=wrap;strokeColor=none;fillColor=none;overflow=fill;" vertex="1" parent="1">
          <mxGeometry x="620" y="534.5" width="110" height="100" as="geometry" />
        </mxCell>
        <mxCell id="9opxPQ4HGeOpxuJZDSy2-24" value="&lt;table border=&quot;1&quot; width=&quot;100%&quot; height=&quot;100%&quot; cellpadding=&quot;4&quot; style=&quot;width:100%;height:100%;border-collapse:collapse;&quot;&gt;&lt;tbody&gt;&lt;tr&gt;&lt;th align=&quot;center&quot;&gt;&lt;span style=&quot;font-weight: 400;&quot;&gt;Отчёт&lt;/span&gt;&lt;br&gt;&lt;/th&gt;&lt;/tr&gt;&lt;tr&gt;&lt;td align=&quot;center&quot;&gt;Report_id&amp;nbsp; &amp;nbsp;&amp;nbsp;&lt;br&gt;&lt;/td&gt;&lt;/tr&gt;&lt;tr&gt;&lt;td align=&quot;center&quot;&gt;Текст&lt;br&gt;&lt;br&gt;&lt;/td&gt;&lt;/tr&gt;&lt;/tbody&gt;&lt;/table&gt;" style="text;html=1;whiteSpace=wrap;strokeColor=none;fillColor=none;overflow=fill;" vertex="1" parent="1">
          <mxGeometry x="710" y="14.5" width="90" height="100" as="geometry" />
        </mxCell>
        <mxCell id="9opxPQ4HGeOpxuJZDSy2-26" value="" style="endArrow=none;dashed=1;html=1;rounded=0;entryX=1.013;entryY=0.617;entryDx=0;entryDy=0;entryPerimeter=0;exitX=0;exitY=0.25;exitDx=0;exitDy=0;startArrow=oval;startFill=1;" edge="1" parent="1" source="9opxPQ4HGeOpxuJZDSy2-15" target="9opxPQ4HGeOpxuJZDSy2-16">
          <mxGeometry width="50" height="50" relative="1" as="geometry">
            <mxPoint x="580" y="390" as="sourcePoint" />
            <mxPoint x="630" y="340" as="targetPoint" />
          </mxGeometry>
        </mxCell>
        <mxCell id="9opxPQ4HGeOpxuJZDSy2-33" value="" style="endArrow=none;dashed=1;html=1;rounded=0;entryX=1;entryY=0;entryDx=0;entryDy=0;exitX=-0.017;exitY=0.4;exitDx=0;exitDy=0;exitPerimeter=0;startArrow=oval;startFill=1;" edge="1" parent="1" source="9opxPQ4HGeOpxuJZDSy2-15" target="9opxPQ4HGeOpxuJZDSy2-17">
          <mxGeometry width="50" height="50" relative="1" as="geometry">
            <mxPoint x="333" y="93" as="sourcePoint" />
            <mxPoint x="211" y="192" as="targetPoint" />
          </mxGeometry>
        </mxCell>
        <mxCell id="9opxPQ4HGeOpxuJZDSy2-34" value="" style="endArrow=oval;dashed=1;html=1;rounded=0;exitX=0.5;exitY=0;exitDx=0;exitDy=0;endFill=1;entryX=0;entryY=1;entryDx=0;entryDy=0;" edge="1" parent="1" source="9opxPQ4HGeOpxuJZDSy2-18" target="9opxPQ4HGeOpxuJZDSy2-15">
          <mxGeometry width="50" height="50" relative="1" as="geometry">
            <mxPoint x="340" y="270" as="sourcePoint" />
            <mxPoint x="230" y="370" as="targetPoint" />
          </mxGeometry>
        </mxCell>
        <mxCell id="9opxPQ4HGeOpxuJZDSy2-35" value="" style="endArrow=none;dashed=1;html=1;rounded=0;exitX=0.25;exitY=1;exitDx=0;exitDy=0;startArrow=oval;startFill=1;" edge="1" parent="1" source="9opxPQ4HGeOpxuJZDSy2-15" target="9opxPQ4HGeOpxuJZDSy2-19">
          <mxGeometry width="50" height="50" relative="1" as="geometry">
            <mxPoint x="340" y="140" as="sourcePoint" />
            <mxPoint x="170" y="300" as="targetPoint" />
          </mxGeometry>
        </mxCell>
        <mxCell id="9opxPQ4HGeOpxuJZDSy2-36" value="" style="endArrow=none;dashed=1;html=1;rounded=0;entryX=0.5;entryY=0;entryDx=0;entryDy=0;exitX=0.5;exitY=1;exitDx=0;exitDy=0;startArrow=oval;startFill=1;" edge="1" parent="1" source="9opxPQ4HGeOpxuJZDSy2-15" target="9opxPQ4HGeOpxuJZDSy2-20">
          <mxGeometry width="50" height="50" relative="1" as="geometry">
            <mxPoint x="350" y="150" as="sourcePoint" />
            <mxPoint x="180" y="310" as="targetPoint" />
          </mxGeometry>
        </mxCell>
        <mxCell id="9opxPQ4HGeOpxuJZDSy2-37" value="" style="endArrow=none;dashed=1;html=1;rounded=0;entryX=0;entryY=0;entryDx=0;entryDy=0;exitX=0.75;exitY=1;exitDx=0;exitDy=0;startArrow=oval;startFill=1;" edge="1" parent="1" source="9opxPQ4HGeOpxuJZDSy2-15" target="9opxPQ4HGeOpxuJZDSy2-23">
          <mxGeometry width="50" height="50" relative="1" as="geometry">
            <mxPoint x="360" y="160" as="sourcePoint" />
            <mxPoint x="190" y="320" as="targetPoint" />
          </mxGeometry>
        </mxCell>
        <mxCell id="9opxPQ4HGeOpxuJZDSy2-39" value="" style="endArrow=none;dashed=1;html=1;rounded=0;entryX=0;entryY=0.25;entryDx=0;entryDy=0;exitX=1;exitY=0.75;exitDx=0;exitDy=0;startArrow=oval;startFill=1;" edge="1" parent="1" source="9opxPQ4HGeOpxuJZDSy2-15" target="9opxPQ4HGeOpxuJZDSy2-22">
          <mxGeometry width="50" height="50" relative="1" as="geometry">
            <mxPoint x="520" y="210" as="sourcePoint" />
            <mxPoint x="692" y="300" as="targetPoint" />
          </mxGeometry>
        </mxCell>
        <mxCell id="9opxPQ4HGeOpxuJZDSy2-40" value="" style="endArrow=none;dashed=1;html=1;rounded=0;entryX=0;entryY=0.5;entryDx=0;entryDy=0;exitX=1;exitY=0.5;exitDx=0;exitDy=0;startArrow=oval;startFill=1;" edge="1" parent="1" source="9opxPQ4HGeOpxuJZDSy2-15" target="9opxPQ4HGeOpxuJZDSy2-21">
          <mxGeometry width="50" height="50" relative="1" as="geometry">
            <mxPoint x="513" y="130" as="sourcePoint" />
            <mxPoint x="780" y="185" as="targetPoint" />
          </mxGeometry>
        </mxCell>
        <mxCell id="9opxPQ4HGeOpxuJZDSy2-41" value="" style="endArrow=none;dashed=1;html=1;rounded=0;entryX=0;entryY=0.5;entryDx=0;entryDy=0;exitX=1;exitY=0.25;exitDx=0;exitDy=0;startArrow=oval;startFill=1;" edge="1" parent="1" source="9opxPQ4HGeOpxuJZDSy2-15" target="9opxPQ4HGeOpxuJZDSy2-24">
          <mxGeometry width="50" height="50" relative="1" as="geometry">
            <mxPoint x="513" y="155" as="sourcePoint" />
            <mxPoint x="920" y="177" as="targetPoint" />
          </mxGeometry>
        </mxCell>
      </root>
    </mxGraphModel>
  </diagram>
  <diagram id="ho5D_MsSKM62rQ0Udqde" name="Физическая модель">
    <mxGraphModel dx="1804" dy="534" grid="1" gridSize="10" guides="1" tooltips="1" connect="1" arrows="1" fold="1" page="1" pageScale="1" pageWidth="827" pageHeight="1169" math="0" shadow="0">
      <root>
        <mxCell id="0" />
        <mxCell id="1" parent="0" />
        <mxCell id="hzBMxEV5q_dn81UfmEvD-1" value="&lt;table border=&quot;1&quot; width=&quot;100%&quot; height=&quot;100%&quot; cellpadding=&quot;4&quot; style=&quot;width:100%;height:100%;border-collapse:collapse;&quot;&gt;&lt;tbody&gt;&lt;tr&gt;&lt;th align=&quot;center&quot;&gt;Project&lt;/th&gt;&lt;/tr&gt;&lt;tr&gt;&lt;td align=&quot;center&quot;&gt;project_id&amp;nbsp;INTEGER NOT NULL&lt;/td&gt;&lt;/tr&gt;&lt;tr&gt;&lt;td align=&quot;center&quot;&gt;Employee_id INTEGER NOT NULL(FK)&lt;br&gt;Customer_idINTEGER NOT NULL(FK)&lt;br&gt;Preprocessing_idINTEGER NOT NULL(FK)&lt;br&gt;Report_idINTEGER NOT NULL(FK)&lt;br&gt;Selecting_idINTEGER NOT NULL(FK)&lt;br&gt;Lerning_idINTEGER NOT NULL(FK)&lt;br&gt;Dataset_idINTEGER NOT NULL(FK)&lt;br&gt;Model_idINTEGER NOT NULL(FK)&lt;br&gt;Report_idINTEGER NOT NULL(FK)&lt;br&gt;Deadline DATE Datetime NOT NULL&lt;br&gt;Task LONG VARCHAR String NOT NULL&lt;br&gt;Requirements LONG VARCHAR String NOT NULL&lt;br&gt;Data DATE Datetime NOT NULL&lt;/td&gt;&lt;/tr&gt;&lt;/tbody&gt;&lt;/table&gt;" style="text;html=1;whiteSpace=wrap;strokeColor=none;fillColor=none;overflow=fill;" vertex="1" parent="1">
          <mxGeometry x="323" y="20" width="287" height="310" as="geometry" />
        </mxCell>
        <mxCell id="hzBMxEV5q_dn81UfmEvD-2" value="&lt;table border=&quot;1&quot; width=&quot;100%&quot; height=&quot;100%&quot; cellpadding=&quot;4&quot; style=&quot;width:100%;height:100%;border-collapse:collapse;&quot;&gt;&lt;tbody&gt;&lt;tr&gt;&lt;th align=&quot;center&quot;&gt;Заказчик&lt;/th&gt;&lt;/tr&gt;&lt;tr&gt;&lt;td align=&quot;center&quot;&gt;Customer_id INTEGER NOT NULL&lt;/td&gt;&lt;/tr&gt;&lt;tr&gt;&lt;td align=&quot;center&quot;&gt;Name_Surname&amp;nbsp;LONG VARCHAR String NOT NULL&lt;br&gt;INN Integert NUMBER(50) NOT NULL&lt;br&gt;&lt;br&gt;&lt;/td&gt;&lt;/tr&gt;&lt;/tbody&gt;&lt;/table&gt;" style="text;html=1;whiteSpace=wrap;strokeColor=none;fillColor=none;overflow=fill;" vertex="1" parent="1">
          <mxGeometry x="10" y="30" width="190" height="150" as="geometry" />
        </mxCell>
        <mxCell id="hzBMxEV5q_dn81UfmEvD-3" style="edgeStyle=orthogonalEdgeStyle;rounded=0;orthogonalLoop=1;jettySize=auto;html=1;exitX=1;exitY=1;exitDx=0;exitDy=0;entryX=0;entryY=0;entryDx=0;entryDy=0;dashed=1;endArrow=oval;endFill=1;" edge="1" parent="1" source="hzBMxEV5q_dn81UfmEvD-7" target="hzBMxEV5q_dn81UfmEvD-8">
          <mxGeometry relative="1" as="geometry">
            <Array as="points">
              <mxPoint x="-70" y="660" />
              <mxPoint x="3" y="660" />
              <mxPoint x="3" y="560" />
              <mxPoint x="80" y="560" />
            </Array>
          </mxGeometry>
        </mxCell>
        <mxCell id="hzBMxEV5q_dn81UfmEvD-4" style="edgeStyle=orthogonalEdgeStyle;rounded=0;orthogonalLoop=1;jettySize=auto;html=1;exitX=0.75;exitY=1;exitDx=0;exitDy=0;entryX=0;entryY=1;entryDx=0;entryDy=0;endArrow=oval;endFill=1;dashed=1;" edge="1" parent="1" source="hzBMxEV5q_dn81UfmEvD-7" target="hzBMxEV5q_dn81UfmEvD-9">
          <mxGeometry relative="1" as="geometry">
            <Array as="points">
              <mxPoint x="-118" y="710" />
              <mxPoint x="280" y="710" />
            </Array>
          </mxGeometry>
        </mxCell>
        <mxCell id="hzBMxEV5q_dn81UfmEvD-5" style="edgeStyle=orthogonalEdgeStyle;rounded=0;orthogonalLoop=1;jettySize=auto;html=1;exitX=0.5;exitY=1;exitDx=0;exitDy=0;entryX=0.25;entryY=1;entryDx=0;entryDy=0;endArrow=oval;endFill=1;dashed=1;" edge="1" parent="1" source="hzBMxEV5q_dn81UfmEvD-7" target="hzBMxEV5q_dn81UfmEvD-10">
          <mxGeometry relative="1" as="geometry">
            <Array as="points">
              <mxPoint x="-180" y="650" />
              <mxPoint x="-180" y="740" />
              <mxPoint x="485" y="740" />
            </Array>
          </mxGeometry>
        </mxCell>
        <mxCell id="hzBMxEV5q_dn81UfmEvD-6" style="edgeStyle=orthogonalEdgeStyle;rounded=0;orthogonalLoop=1;jettySize=auto;html=1;exitX=0.25;exitY=1;exitDx=0;exitDy=0;entryX=1;entryY=1;entryDx=0;entryDy=0;dashed=1;endArrow=oval;endFill=1;" edge="1" parent="1" source="hzBMxEV5q_dn81UfmEvD-7" target="hzBMxEV5q_dn81UfmEvD-12">
          <mxGeometry relative="1" as="geometry">
            <mxPoint x="600" y="870" as="targetPoint" />
            <Array as="points">
              <mxPoint x="-215" y="780" />
              <mxPoint x="770" y="780" />
            </Array>
          </mxGeometry>
        </mxCell>
        <mxCell id="hzBMxEV5q_dn81UfmEvD-7" value="&lt;table border=&quot;1&quot; width=&quot;100%&quot; height=&quot;100%&quot; cellpadding=&quot;4&quot; style=&quot;width:100%;height:100%;border-collapse:collapse;&quot;&gt;&lt;tbody&gt;&lt;tr&gt;&lt;th align=&quot;center&quot;&gt;Сотрудник&lt;/th&gt;&lt;/tr&gt;&lt;tr&gt;&lt;td align=&quot;center&quot;&gt;Employee_id&lt;br&gt;&lt;/td&gt;&lt;/tr&gt;&lt;tr&gt;&lt;td align=&quot;center&quot;&gt;Name_Surname&amp;nbsp;LONG VARCHAR String NOT NULL&lt;br&gt;INN Integert NUMBER(50) NOT NULL&lt;br&gt;Logs&amp;nbsp;LONG VARCHAR String NOT NULL&lt;br&gt;&lt;br&gt;&lt;/td&gt;&lt;/tr&gt;&lt;/tbody&gt;&lt;/table&gt;" style="text;html=1;whiteSpace=wrap;strokeColor=none;fillColor=none;overflow=fill;" vertex="1" parent="1">
          <mxGeometry x="-260" y="490" width="190" height="160" as="geometry" />
        </mxCell>
        <mxCell id="hzBMxEV5q_dn81UfmEvD-8" value="&lt;table border=&quot;1&quot; width=&quot;100%&quot; height=&quot;100%&quot; cellpadding=&quot;4&quot; style=&quot;width:100%;height:100%;border-collapse:collapse;&quot;&gt;&lt;tbody&gt;&lt;tr&gt;&lt;th align=&quot;center&quot;&gt;&lt;span style=&quot;font-weight: 400;&quot;&gt;Подготовка датасета&lt;/span&gt;&lt;br&gt;&lt;/th&gt;&lt;/tr&gt;&lt;tr&gt;&lt;td align=&quot;center&quot;&gt;Preprocessing_id INTEGER NOT NULL&lt;br&gt;&lt;/td&gt;&lt;/tr&gt;&lt;tr&gt;&lt;td align=&quot;center&quot;&gt;Employee_idINTEGER NOT NULL(FK)&lt;br&gt;Result&amp;nbsp;LONG VARCHAR String NOT NULL&lt;br&gt;&lt;br&gt;&lt;/td&gt;&lt;/tr&gt;&lt;/tbody&gt;&lt;/table&gt;" style="text;html=1;whiteSpace=wrap;strokeColor=none;fillColor=none;overflow=fill;" vertex="1" parent="1">
          <mxGeometry x="80" y="540" width="180" height="150" as="geometry" />
        </mxCell>
        <mxCell id="hzBMxEV5q_dn81UfmEvD-9" value="&lt;table border=&quot;1&quot; width=&quot;100%&quot; height=&quot;100%&quot; cellpadding=&quot;4&quot; style=&quot;width:100%;height:100%;border-collapse:collapse;&quot;&gt;&lt;tbody&gt;&lt;tr&gt;&lt;th align=&quot;center&quot;&gt;&lt;span style=&quot;font-weight: 400;&quot;&gt;Выбор алгоритма&lt;/span&gt;&lt;br&gt;&lt;/th&gt;&lt;/tr&gt;&lt;tr&gt;&lt;td align=&quot;center&quot;&gt;Selecting_id&amp;nbsp;INTEGER NOT NULL&lt;br&gt;&lt;/td&gt;&lt;/tr&gt;&lt;tr&gt;&lt;td align=&quot;center&quot;&gt;Employee_id INTEGER NOT NULL(FK)&lt;br&gt;Result&amp;nbsp;LONG VARCHAR String NOT NULL&lt;br&gt;&lt;br&gt;&lt;/td&gt;&lt;/tr&gt;&lt;/tbody&gt;&lt;/table&gt;" style="text;html=1;whiteSpace=wrap;strokeColor=none;fillColor=none;overflow=fill;" vertex="1" parent="1">
          <mxGeometry x="280" y="540" width="150" height="160" as="geometry" />
        </mxCell>
        <mxCell id="hzBMxEV5q_dn81UfmEvD-10" value="&lt;table border=&quot;1&quot; width=&quot;100%&quot; height=&quot;100%&quot; cellpadding=&quot;4&quot; style=&quot;width:100%;height:100%;border-collapse:collapse;&quot;&gt;&lt;tbody&gt;&lt;tr&gt;&lt;th align=&quot;center&quot;&gt;&lt;span style=&quot;font-weight: 400;&quot;&gt;Обучение выбранной модели&lt;/span&gt;&lt;br&gt;&lt;/th&gt;&lt;/tr&gt;&lt;tr&gt;&lt;td align=&quot;center&quot;&gt;Lerning_id&amp;nbsp; &amp;nbsp;INTEGER NOT NULL&amp;nbsp;&lt;br&gt;&lt;/td&gt;&lt;/tr&gt;&lt;tr&gt;&lt;td align=&quot;center&quot;&gt;Employee_id INTEGER NOT NULL(FK)&lt;br&gt;Result&amp;nbsp;LONG VARCHAR String NOT NULL&lt;br&gt;&lt;br&gt;&lt;/td&gt;&lt;/tr&gt;&lt;/tbody&gt;&lt;/table&gt;" style="text;html=1;whiteSpace=wrap;strokeColor=none;fillColor=none;overflow=fill;" vertex="1" parent="1">
          <mxGeometry x="450" y="500" width="140" height="200" as="geometry" />
        </mxCell>
        <mxCell id="hzBMxEV5q_dn81UfmEvD-11" value="&lt;table border=&quot;1&quot; width=&quot;100%&quot; height=&quot;100%&quot; cellpadding=&quot;4&quot; style=&quot;width:100%;height:100%;border-collapse:collapse;&quot;&gt;&lt;tbody&gt;&lt;tr&gt;&lt;th align=&quot;center&quot;&gt;&lt;span style=&quot;font-weight: 400;&quot;&gt;Датасет&lt;/span&gt;&lt;br&gt;&lt;/th&gt;&lt;/tr&gt;&lt;tr&gt;&lt;td align=&quot;center&quot;&gt;Dataset_id&amp;nbsp;INTEGER NOT NULL &amp;nbsp;&amp;nbsp;&lt;br&gt;&lt;/td&gt;&lt;/tr&gt;&lt;tr&gt;&lt;td align=&quot;center&quot;&gt;Data&amp;nbsp;LONG VARCHAR String NOT NULL&lt;br&gt;&lt;br&gt;&lt;/td&gt;&lt;/tr&gt;&lt;/tbody&gt;&lt;/table&gt;" style="text;html=1;whiteSpace=wrap;strokeColor=none;fillColor=none;overflow=fill;" vertex="1" parent="1">
          <mxGeometry x="690" y="164.5" width="130" height="135.5" as="geometry" />
        </mxCell>
        <mxCell id="hzBMxEV5q_dn81UfmEvD-12" value="&lt;table border=&quot;1&quot; width=&quot;100%&quot; height=&quot;100%&quot; cellpadding=&quot;4&quot; style=&quot;width:100%;height:100%;border-collapse:collapse;&quot;&gt;&lt;tbody&gt;&lt;tr&gt;&lt;th align=&quot;center&quot;&gt;&lt;span style=&quot;font-weight: 400;&quot;&gt;Релиз модели и документации&lt;/span&gt;&lt;br&gt;&lt;/th&gt;&lt;/tr&gt;&lt;tr&gt;&lt;td align=&quot;center&quot;&gt;Relise_id&amp;nbsp; &amp;nbsp;INTEGER NOT NULL&lt;br&gt;&lt;/td&gt;&lt;/tr&gt;&lt;tr&gt;&lt;td align=&quot;center&quot;&gt;Employee_id INTEGER NOT NULL(FK)&lt;br&gt;Result&amp;nbsp;LONG VARCHAR String NOT NULL&lt;br&gt;&lt;br&gt;&lt;/td&gt;&lt;/tr&gt;&lt;/tbody&gt;&lt;/table&gt;" style="text;html=1;whiteSpace=wrap;strokeColor=none;fillColor=none;overflow=fill;" vertex="1" parent="1">
          <mxGeometry x="650" y="340" width="150" height="160" as="geometry" />
        </mxCell>
        <mxCell id="hzBMxEV5q_dn81UfmEvD-13" value="&lt;table border=&quot;1&quot; width=&quot;100%&quot; height=&quot;100%&quot; cellpadding=&quot;4&quot; style=&quot;width:100%;height:100%;border-collapse:collapse;&quot;&gt;&lt;tbody&gt;&lt;tr&gt;&lt;th align=&quot;center&quot;&gt;&lt;span style=&quot;font-weight: 400;&quot;&gt;Модель&lt;/span&gt;&lt;br&gt;&lt;/th&gt;&lt;/tr&gt;&lt;tr&gt;&lt;td align=&quot;center&quot;&gt;Model_id&amp;nbsp;INTEGER NOT NULL&lt;br&gt;&lt;/td&gt;&lt;/tr&gt;&lt;tr&gt;&lt;td align=&quot;center&quot;&gt;Реализация модели&lt;br&gt;LONG VARCHAR String NOT NULL&lt;br&gt;&lt;/td&gt;&lt;/tr&gt;&lt;/tbody&gt;&lt;/table&gt;" style="text;html=1;whiteSpace=wrap;strokeColor=none;fillColor=none;overflow=fill;" vertex="1" parent="1">
          <mxGeometry x="620" y="534.5" width="130" height="155.5" as="geometry" />
        </mxCell>
        <mxCell id="hzBMxEV5q_dn81UfmEvD-14" value="&lt;table border=&quot;1&quot; width=&quot;100%&quot; height=&quot;100%&quot; cellpadding=&quot;4&quot; style=&quot;width:100%;height:100%;border-collapse:collapse;&quot;&gt;&lt;tbody&gt;&lt;tr&gt;&lt;th align=&quot;center&quot;&gt;&lt;span style=&quot;font-weight: 400;&quot;&gt;Отчёт&lt;/span&gt;&lt;br&gt;&lt;/th&gt;&lt;/tr&gt;&lt;tr&gt;&lt;td align=&quot;center&quot;&gt;Report_id&amp;nbsp; INTEGER NOT NULL&amp;nbsp; &amp;nbsp;&lt;br&gt;&lt;/td&gt;&lt;/tr&gt;&lt;tr&gt;&lt;td align=&quot;center&quot;&gt;Текст&amp;nbsp;LONG VARCHAR String NOT NULL&lt;br&gt;&lt;br&gt;&lt;/td&gt;&lt;/tr&gt;&lt;/tbody&gt;&lt;/table&gt;" style="text;html=1;whiteSpace=wrap;strokeColor=none;fillColor=none;overflow=fill;" vertex="1" parent="1">
          <mxGeometry x="710" y="14.5" width="110" height="125.5" as="geometry" />
        </mxCell>
        <mxCell id="hzBMxEV5q_dn81UfmEvD-15" value="" style="endArrow=none;dashed=1;html=1;rounded=0;entryX=1.013;entryY=0.617;entryDx=0;entryDy=0;entryPerimeter=0;exitX=0;exitY=0.25;exitDx=0;exitDy=0;startArrow=oval;startFill=1;" edge="1" parent="1" source="hzBMxEV5q_dn81UfmEvD-1" target="hzBMxEV5q_dn81UfmEvD-2">
          <mxGeometry width="50" height="50" relative="1" as="geometry">
            <mxPoint x="580" y="390" as="sourcePoint" />
            <mxPoint x="630" y="340" as="targetPoint" />
          </mxGeometry>
        </mxCell>
        <mxCell id="hzBMxEV5q_dn81UfmEvD-16" value="" style="endArrow=none;dashed=1;html=1;rounded=0;entryX=1;entryY=0;entryDx=0;entryDy=0;exitX=-0.017;exitY=0.4;exitDx=0;exitDy=0;exitPerimeter=0;startArrow=oval;startFill=1;" edge="1" parent="1" source="hzBMxEV5q_dn81UfmEvD-1" target="hzBMxEV5q_dn81UfmEvD-7">
          <mxGeometry width="50" height="50" relative="1" as="geometry">
            <mxPoint x="333" y="93" as="sourcePoint" />
            <mxPoint x="211" y="192" as="targetPoint" />
          </mxGeometry>
        </mxCell>
        <mxCell id="hzBMxEV5q_dn81UfmEvD-17" value="" style="endArrow=oval;dashed=1;html=1;rounded=0;exitX=0.5;exitY=0;exitDx=0;exitDy=0;endFill=1;entryX=0;entryY=1;entryDx=0;entryDy=0;" edge="1" parent="1" source="hzBMxEV5q_dn81UfmEvD-8" target="hzBMxEV5q_dn81UfmEvD-1">
          <mxGeometry width="50" height="50" relative="1" as="geometry">
            <mxPoint x="340" y="270" as="sourcePoint" />
            <mxPoint x="230" y="370" as="targetPoint" />
          </mxGeometry>
        </mxCell>
        <mxCell id="hzBMxEV5q_dn81UfmEvD-18" value="" style="endArrow=none;dashed=1;html=1;rounded=0;exitX=0.25;exitY=1;exitDx=0;exitDy=0;startArrow=oval;startFill=1;" edge="1" parent="1" source="hzBMxEV5q_dn81UfmEvD-1" target="hzBMxEV5q_dn81UfmEvD-9">
          <mxGeometry width="50" height="50" relative="1" as="geometry">
            <mxPoint x="340" y="140" as="sourcePoint" />
            <mxPoint x="170" y="300" as="targetPoint" />
          </mxGeometry>
        </mxCell>
        <mxCell id="hzBMxEV5q_dn81UfmEvD-19" value="" style="endArrow=none;dashed=1;html=1;rounded=0;entryX=0.5;entryY=0;entryDx=0;entryDy=0;exitX=0.5;exitY=1;exitDx=0;exitDy=0;startArrow=oval;startFill=1;" edge="1" parent="1" source="hzBMxEV5q_dn81UfmEvD-1" target="hzBMxEV5q_dn81UfmEvD-10">
          <mxGeometry width="50" height="50" relative="1" as="geometry">
            <mxPoint x="350" y="150" as="sourcePoint" />
            <mxPoint x="180" y="310" as="targetPoint" />
          </mxGeometry>
        </mxCell>
        <mxCell id="hzBMxEV5q_dn81UfmEvD-20" value="" style="endArrow=none;dashed=1;html=1;rounded=0;entryX=0;entryY=0;entryDx=0;entryDy=0;exitX=0.75;exitY=1;exitDx=0;exitDy=0;startArrow=oval;startFill=1;" edge="1" parent="1" source="hzBMxEV5q_dn81UfmEvD-1" target="hzBMxEV5q_dn81UfmEvD-13">
          <mxGeometry width="50" height="50" relative="1" as="geometry">
            <mxPoint x="360" y="160" as="sourcePoint" />
            <mxPoint x="190" y="320" as="targetPoint" />
          </mxGeometry>
        </mxCell>
        <mxCell id="hzBMxEV5q_dn81UfmEvD-21" value="" style="endArrow=none;dashed=1;html=1;rounded=0;entryX=0;entryY=0.25;entryDx=0;entryDy=0;exitX=1;exitY=0.75;exitDx=0;exitDy=0;startArrow=oval;startFill=1;" edge="1" parent="1" source="hzBMxEV5q_dn81UfmEvD-1" target="hzBMxEV5q_dn81UfmEvD-12">
          <mxGeometry width="50" height="50" relative="1" as="geometry">
            <mxPoint x="520" y="210" as="sourcePoint" />
            <mxPoint x="692" y="300" as="targetPoint" />
          </mxGeometry>
        </mxCell>
        <mxCell id="hzBMxEV5q_dn81UfmEvD-22" value="" style="endArrow=none;dashed=1;html=1;rounded=0;entryX=0;entryY=0.5;entryDx=0;entryDy=0;exitX=1;exitY=0.5;exitDx=0;exitDy=0;startArrow=oval;startFill=1;" edge="1" parent="1" source="hzBMxEV5q_dn81UfmEvD-1" target="hzBMxEV5q_dn81UfmEvD-11">
          <mxGeometry width="50" height="50" relative="1" as="geometry">
            <mxPoint x="513" y="130" as="sourcePoint" />
            <mxPoint x="780" y="185" as="targetPoint" />
          </mxGeometry>
        </mxCell>
        <mxCell id="hzBMxEV5q_dn81UfmEvD-23" value="" style="endArrow=none;dashed=1;html=1;rounded=0;entryX=0;entryY=0.5;entryDx=0;entryDy=0;exitX=1;exitY=0.25;exitDx=0;exitDy=0;startArrow=oval;startFill=1;" edge="1" parent="1" source="hzBMxEV5q_dn81UfmEvD-1" target="hzBMxEV5q_dn81UfmEvD-14">
          <mxGeometry width="50" height="50" relative="1" as="geometry">
            <mxPoint x="513" y="155" as="sourcePoint" />
            <mxPoint x="920" y="177" as="targetPoint" />
          </mxGeometry>
        </mxCell>
      </root>
    </mxGraphModel>
  </diagram>
</mxfile>
